PathFileType	4	(X/Y/Z)	C:\Users\WrightLab\Desktop\Jo\P2_Trial15.trc
DataRate	CameraRate	NumFrames	NumMarkers	Units	OrigDataRate	OrigDataStartFrame	OrigNumFrames
100.00	100.00	       16	19	mm	100.00	166	       440
Frame#	Time	Headset_Front			Headset_Back			Headset_Left			Headset_Right			Left_Shoulder			Right_Shoulder			Sternum			C7			Left Elbow			Right Elbow			Left Wrist			Right Wrist			Left ASIS			Right ASIS			S2			Left Knee			Right Knee			Left Ankle			Right Ankle			
		X1	Y1	Z1	X2	Y2	Z2	X3	Y3	Z3	X4	Y4	Z4	X5	Y5	Z5	X6	Y6	Z6	X7	Y7	Z7	X8	Y8	Z8	X9	Y9	Z9	X10	Y10	Z10	X11	Y11	Z11	X12	Y12	Z12	X13	Y13	Z13	X14	Y14	Z14	X15	Y15	Z15	X16	Y16	Z16	X17	Y17	Z17	X18	Y18	Z18	X19	Y19	Z19	

166	1.650	-335.05057	1472.09155	304.35855	-417.28104	1692.37256	108.21642	-294.96277	1572.77344	122.73496	-450.60590	1565.82544	294.92746	-341.78424	1434.43640	17.22099	-596.40454	1463.55432	224.88321	-435.71524	1334.60095	182.64201	-551.07227	1442.55725	45.52441	-276.88718	1075.36279	-31.07038	-732.01599	1148.71973	274.94937	-265.24628	833.98871	-34.48088	-745.71368	901.71521	351.51193	-393.74063	1042.66626	190.66292	-505.14682	1037.57422	261.37430	-578.90356	949.67883	3.42067	-302.44482	515.50104	214.43423	-716.10767	564.91803	277.79117	-451.02362	264.28436	114.80619	-651.04010	133.69681	258.84888	
167	1.660	-328.33331	1470.49133	319.27866	-413.50067	1692.59302	119.09093	-289.20883	1571.70581	132.76768	-444.44321	1564.57568	305.45087	-337.48734	1434.06775	25.78512	-589.96014	1462.58057	235.90808	-428.35574	1333.62000	191.93896	-546.33954	1442.11731	55.84143	-274.62961	1075.48767	-26.86662	-725.33838	1147.73706	289.78119	-262.60870	832.84485	-26.28194	-737.89539	901.33801	367.65668	-388.20673	1042.04004	198.78329	-499.22562	1036.67725	270.14679	-573.45990	949.25342	12.16587	-288.97995	513.71783	222.93176	-712.53796	561.75153	280.37210	-434.25616	255.27667	133.99774	-651.62183	130.27060	255.51151	
168	1.670	-321.87912	1469.31958	329.31241	-407.58212	1691.45007	129.43330	-283.40091	1570.76379	142.47417	-438.06583	1563.18176	315.88968	-332.68124	1433.77283	34.83083	-583.33069	1461.27185	246.70996	-422.60989	1332.37085	201.84601	-541.51630	1441.61621	65.96231	-272.16281	1075.05457	-22.02788	-718.26324	1146.82739	304.29321	-260.17960	833.35193	-27.79463	-730.33313	900.98737	384.60501	-381.76736	1041.43408	207.21858	-492.15570	1034.55164	278.62665	-568.00012	948.91956	20.69914	-275.57410	510.76318	232.65628	-707.67865	558.45911	283.12906	-416.83957	245.48723	152.54652	-652.23486	125.96912	256.15332	
169	1.680	-315.81226	1466.68774	332.60101	-402.16858	1690.93689	140.12627	-277.44559	1569.67053	152.46989	-431.15598	1561.57080	326.17175	-327.63651	1432.92407	43.12937	-576.63403	1459.55920	257.92670	-419.22174	1329.95984	208.08287	-536.37024	1440.71338	77.20834	-268.87622	1075.03174	-16.74010	-710.96844	1145.70349	318.30130	-257.65298	832.45349	-18.58077	-722.59998	900.83051	400.42426	-375.46436	1040.62817	214.06635	-485.17352	1033.40845	288.02173	-562.25452	948.21661	29.06121	-262.32941	508.11093	242.34697	-703.17084	556.50067	284.94904	-397.70544	234.34026	171.66479	-652.74408	122.41028	254.81679	
170	1.690	-309.49631	1465.72449	349.42014	-396.27271	1689.20251	151.06851	-272.04205	1568.76074	162.00092	-425.13452	1559.68872	336.48865	-322.45215	1432.48779	52.17706	-570.10254	1457.77551	268.48291	-411.92172	1328.84644	217.36653	-531.01172	1439.86523	87.06635	-265.63721	1074.64685	-11.56694	-703.94025	1144.56018	332.58444	-254.75107	831.68146	-16.99371	-714.54791	900.13519	415.91284	-369.19675	1039.74866	222.58981	-476.92450	1032.01086	297.66803	-556.50220	948.31262	37.49946	-249.04771	505.64816	251.54599	-697.57861	553.82275	285.82541	-378.15103	224.19800	190.27129	-653.12115	118.20638	255.15468	
171	1.700	-302.52628	1463.49329	359.35278	-390.10187	1688.16785	161.72566	-265.63138	1567.00415	172.81876	-418.88675	1557.52332	346.98096	-316.99655	1431.51746	61.24459	-563.37463	1455.80579	278.91983	-406.54694	1326.94446	226.38361	-525.39282	1438.60828	97.89159	-261.49884	1074.39880	-5.75657	-696.21710	1143.18201	346.09250	-251.77907	832.00336	-17.31733	-706.50165	899.71710	431.87598	-362.31161	1038.16211	231.06352	-470.96240	1029.59497	303.37479	-550.51343	947.25708	46.64455	-236.19438	502.81543	260.22763	-692.16400	551.80420	287.38248	-356.59854	212.92699	208.51947	-653.96313	114.91451	256.11255	
172	1.710	-296.43341	1461.92114	369.49933	-384.09290	1687.12341	172.47234	-259.54929	1566.39014	182.98415	-412.01917	1555.59814	357.19708	-311.36227	1431.30566	70.92120	-557.10046	1453.76233	289.64948	-400.20349	1325.03503	234.43671	-519.55499	1437.64819	108.48399	-258.03259	1074.45703	-0.51775	-688.98822	1141.61084	359.46640	-248.28012	832.06458	-9.55521	-697.81830	899.24286	447.40115	-355.47458	1037.32422	240.14803	-464.43069	1028.03125	311.50940	-543.68475	946.65717	54.55867	-223.72029	500.04947	267.96179	-686.02325	550.18396	288.69537	-334.83536	200.59805	226.92924	-656.20221	112.26013	256.60742	
173	1.720	-289.91324	1459.47583	379.76852	-378.16479	1685.39087	183.65230	-253.49875	1564.54175	192.93376	-406.18982	1554.13831	367.86526	-304.88312	1431.60449	79.36626	-550.18933	1451.79700	299.65591	-392.92084	1323.63550	243.85194	-513.64484	1436.13928	118.35574	-253.31467	1073.61035	5.47307	-681.17645	1140.18347	372.27820	-244.92143	833.63641	-12.53183	-688.52710	898.01001	462.91214	-348.63928	1036.44421	248.15060	-457.13724	1026.57666	319.20316	-537.12860	946.20746	63.95019	-212.26099	497.16016	274.98129	-679.73492	547.68384	290.41745	-311.19821	189.48331	243.79166	-657.36456	109.78831	258.02032	
174	1.730	-284.23999	1456.61230	380.87921	-371.81216	1684.13330	194.08279	-247.28610	1562.94434	202.99913	-399.68640	1551.61963	378.15991	-298.57458	1430.57959	89.06241	-543.72510	1449.56091	309.74762	-386.83994	1321.82141	252.78584	-507.26190	1434.84863	128.22418	-248.75580	1073.22131	11.73756	-673.40472	1138.24646	384.73026	-241.75586	831.22504	-2.55889	-679.11719	897.69318	478.27863	-341.06671	1035.03186	256.25986	-449.91125	1025.25488	328.84341	-530.05927	944.91357	72.80576	-201.37099	494.60779	280.40018	-672.88269	545.60297	291.15225	-286.56662	179.09149	261.48529	-660.16364	105.62711	252.33205	
175	1.740	-276.41095	1455.77209	391.36472	-365.63098	1682.27771	204.91595	-241.08800	1561.62317	213.22261	-393.09088	1549.55042	388.45285	-291.99487	1429.48364	99.34755	-536.95453	1447.07910	319.85492	-380.15912	1319.44836	262.69235	-500.90222	1433.33301	138.62689	-243.48740	1073.02869	19.03125	-664.73486	1136.72192	397.00818	-238.13348	831.66693	-2.22360	-669.41382	896.51306	493.07770	-332.28308	1033.45447	264.41016	-441.84955	1023.44647	337.15524	-522.90485	943.73273	81.50909	-190.63164	493.11734	284.93112	-665.85400	543.46191	292.33414	-261.32803	168.36244	279.18054	-662.48114	106.60032	260.99127	
176	1.750	-269.98456	1451.93262	397.35559	-358.96451	1680.73010	215.72513	-234.42274	1559.87585	223.60840	-386.16116	1547.18518	398.72766	-285.46381	1428.25684	109.68754	-530.50336	1444.61548	329.61316	-372.85229	1317.72070	271.43967	-494.10394	1431.45288	149.04445	-238.49234	1072.36121	25.79462	-656.36401	1133.86462	408.63229	-234.38870	830.63904	5.38889	-660.23706	895.95074	507.94470	-325.72968	1031.59009	271.92966	-433.75848	1021.31598	345.78397	-515.22992	942.07538	90.11085	-182.38673	491.04608	289.35297	-658.75287	541.28833	292.83896	-235.62196	158.87663	295.36569	-663.59900	105.13987	261.42633	
177	1.760	-262.99307	1450.55103	410.87357	-352.56827	1679.34570	226.45732	-228.10674	1558.23389	236.17926	-380.30255	1544.93408	409.20126	-278.49426	1427.17590	119.74112	-524.04156	1442.04053	339.87344	-365.37436	1315.43994	280.92419	-487.23044	1429.21301	158.84915	-232.25142	1071.86377	32.35553	-647.96344	1131.71326	420.40222	-229.90192	831.52307	6.09019	-650.57861	895.33893	522.75586	-317.44193	1030.47595	281.81619	-425.23572	1020.11951	355.53525	-507.41678	940.75397	98.92377	-174.06483	488.88818	293.49506	-652.53418	540.46387	294.28586	-208.92424	149.04045	312.90012	-665.02258	104.15059	262.48682	
178	1.770	-256.69308	1447.50671	417.98981	-345.79459	1677.22705	236.89830	-221.44667	1556.17798	245.08310	-373.71048	1542.62512	419.69391	-271.07977	1425.85913	130.49756	-517.21240	1439.53821	349.48413	-357.47144	1314.18201	290.60364	-480.26437	1427.47205	168.80876	-226.67610	1070.78198	39.55472	-639.41235	1129.15186	431.17648	-223.76341	830.05457	10.45600	-640.63104	894.49915	536.58698	-308.88303	1028.53308	290.25137	-417.36270	1016.62384	361.92252	-498.88354	938.65094	107.36390	-165.35153	486.29678	298.74881	-644.91528	538.26862	294.79294	-181.52110	140.74646	328.95932	-665.92389	102.22404	263.68661	
179	1.780	-249.52699	1445.89063	430.28754	-339.88986	1675.30762	248.03366	-214.69659	1554.74414	254.60559	-366.80759	1540.57727	430.11172	-263.71970	1423.98450	140.71030	-510.36929	1436.61731	359.29810	-350.84302	1311.74231	300.65686	-472.80035	1424.83240	178.67458	-219.15413	1070.24243	47.73799	-630.75647	1126.58826	442.17499	-219.09660	829.54474	14.22010	-630.40216	893.21417	550.69379	-300.37424	1026.48071	298.99194	-408.76611	1013.05573	366.36469	-490.25595	937.07404	115.63389	-157.51605	482.83255	303.87210	-638.47076	537.14758	295.91058	-153.02533	132.18069	344.28918	-667.30542	102.27713	266.17099	
180	1.790	-243.40536	1443.16907	440.41074	-333.91129	1673.47437	258.64780	-207.81644	1553.02881	265.73776	-360.34921	1538.08484	440.48685	-255.95819	1422.63538	151.40321	-503.34415	1433.74927	368.78574	-344.00928	1309.46814	311.68115	-465.49142	1422.49792	188.75038	-212.19312	1069.18152	55.33162	-622.08923	1123.66394	452.45621	-213.17207	829.18372	17.51247	-620.20172	892.53271	564.70593	-291.49750	1024.69922	308.11023	-400.01407	1012.71967	382.23221	-481.11136	935.04309	123.92959	-149.80426	478.67526	310.02502	-631.30023	535.04517	296.86978	-123.99434	124.00043	359.43469	-668.47528	101.11304	266.60938	
181	1.800	-236.96942	1441.35120	451.84927	-325.76508	1671.31592	269.11609	-200.92776	1550.63367	277.44852	-353.41135	1535.89148	450.89108	-248.02454	1421.17249	162.05690	-496.29849	1430.66699	378.49042	-334.76202	1307.40344	322.04581	-458.20630	1420.59399	198.52583	-204.71768	1068.30591	63.42892	-613.35394	1120.39221	463.01575	-207.46873	828.95313	21.21612	-609.57196	891.52075	577.66980	-282.52353	1022.67145	317.02695	-390.95093	1009.60449	389.68704	-471.43118	933.17560	132.30858	-142.43445	474.10361	316.88409	-623.81238	533.00372	298.19189	-94.23940	118.88105	372.37680	-669.33575	100.33652	267.84030	
